ply
format ascii 1.0
comment Created by Blender 2.66 (sub 1) - www.blender.org, source file: ''
element vertex 165
property float x
property float y
property float z
property float nx
property float ny
property float nz
property float s
property float t
element face 96
property list uchar uint vertex_indices
end_header
-0.630920 -0.226328 0.592326 -0.089511 -0.978820 0.184027 0.137636 0.563411
-0.537873 -0.057997 1.154378 -0.216498 -0.823542 0.524277 0.058285 0.569867
-1.052088 -0.064600 0.954513 -0.300027 -0.803858 0.513565 0.082613 0.506661
-1.155731 -0.217847 0.459469 -0.258034 -0.946928 0.191534 0.152906 0.498683
-0.677921 1.329703 0.698183 -0.094790 0.986023 0.136937 0.155028 0.344089
-1.176430 1.281231 0.646380 -0.401135 0.899045 0.175481 0.206316 0.378186
-1.019775 1.174950 1.105961 -0.341929 0.786493 0.514267 0.155630 0.402329
-0.610285 1.147948 1.327881 -0.312571 0.724204 0.614643 0.099783 0.387655
1.115930 1.067893 0.980967 0.781915 0.543626 0.305032 0.896175 0.282885
0.808457 1.346412 0.902078 0.446211 0.853542 0.268929 0.854473 0.349296
0.444005 1.032712 1.513821 0.335551 0.448988 0.828120 0.794976 0.248970
0.936321 0.677546 1.426494 0.403729 0.275857 0.872250 0.870663 0.174892
-0.944509 0.743625 1.392342 -0.386761 -0.077364 0.918912 0.949240 0.587705
-0.610285 1.147948 1.327881 -0.312571 0.724204 0.614643 0.944083 0.694636
-1.019775 1.174950 1.105961 -0.341929 0.786493 0.514267 0.905653 0.682602
-1.281588 0.883991 1.218077 -0.647511 0.328257 0.687704 0.916733 0.604517
-1.719440 0.916506 -0.699776 -0.888943 0.365734 -0.275674 0.336809 0.082005
-1.356023 1.245036 -0.716849 -0.451552 0.862300 -0.229072 0.369246 0.000842
-0.681862 1.180458 -1.481573 -0.351421 0.711722 -0.608203 0.489191 0.000000
-0.974527 0.926074 -1.431442 -0.565966 0.146825 -0.811243 0.460672 0.063535
-0.751048 0.149059 -1.123006 -0.161809 -0.704764 -0.690725 0.485748 0.254952
-0.321458 -0.060305 -0.702046 -0.012482 -0.876095 -0.481948 0.512673 0.310590
-0.692441 -0.114299 -0.835835 0.079409 -0.804132 -0.589068 0.481603 0.323059
-1.063276 0.074521 -1.015607 -0.235359 -0.625263 -0.744041 0.447322 0.276247
-0.359688 -0.219676 -0.596748 0.026948 -0.929777 -0.367046 0.276846 0.583529
-0.476225 -0.274043 -0.037390 -0.038667 -0.998718 -0.031922 0.215363 0.578539
-1.094633 -0.254018 -0.118459 -0.173009 -0.984741 -0.017853 0.223692 0.502410
-0.862364 -0.219203 -0.537108 -0.051271 -0.956633 -0.286721 0.270084 0.523882
0.548058 -0.284113 -0.657622 -0.017396 -0.982086 -0.187567 0.288525 0.695621
0.480423 -0.312115 -0.111060 0.082949 -0.996277 -0.022675 0.226456 0.694739
-0.015789 -0.312706 -0.060242 -0.050264 -0.996643 -0.064119 0.220811 0.635843
0.172793 -0.188473 -0.532460 -0.140294 -0.946959 -0.289041 0.266533 0.646047
0.383454 -0.298149 0.533170 0.117130 -0.983062 0.140782 0.149628 0.688747
0.243586 -0.141476 1.191072 0.103122 -0.862545 0.495315 0.060049 0.668982
-0.154563 -0.114500 1.228987 -0.082766 -0.849818 0.520493 0.053708 0.620010
-0.106274 -0.274351 0.595963 -0.067598 -0.986053 0.151921 0.140662 0.629249
0.342781 1.370886 0.863692 0.087588 0.979858 0.179388 0.046020 0.277128
-0.198010 1.360380 0.630818 -0.049379 0.995209 0.084292 0.115533 0.299946
-0.344848 1.152380 1.730000 -0.228645 0.542558 0.808283 0.042023 0.402498
-0.065279 1.102928 1.796044 0.139134 0.378826 0.914914 0.011393 0.383384
0.801564 1.333314 -0.716665 0.156194 0.976287 -0.149815 0.133867 0.094672
0.062998 1.276304 -0.994314 0.032197 0.984497 -0.172338 0.226136 0.127633
0.046107 1.351565 -0.253730 -0.019715 0.998535 -0.050295 0.165692 0.199396
0.611501 1.352344 -0.290780 0.089602 0.995788 -0.018342 0.116225 0.149680
-0.544178 1.290048 -0.889409 -0.034150 0.991974 -0.121708 0.273683 0.187557
-1.356023 1.245036 -0.716849 -0.451552 0.862300 -0.229072 0.335575 0.267841
-1.177093 1.303243 0.009798 -0.355815 0.934324 0.019776 0.258354 0.321530
-0.603343 1.343584 -0.011276 -0.052278 0.998230 -0.027955 0.206193 0.274302
1.347667 0.189763 0.746821 0.922941 -0.358196 0.140812 0.422948 0.654063
1.267461 0.630730 1.008356 0.947264 0.188269 0.259285 0.520455 0.684734
1.155268 0.478039 1.381585 0.667074 -0.009461 0.744896 0.477461 0.726331
1.014587 0.183491 1.312948 0.499191 -0.537370 0.679708 0.404599 0.713241
1.323792 0.127379 -0.856060 0.921262 -0.339305 -0.190039 0.422729 0.459207
1.267107 0.600208 -0.689727 0.993439 -0.109806 0.031343 0.529375 0.479105
1.175182 0.692469 0.169032 0.985717 0.163579 0.039613 0.539575 0.580737
1.268899 0.241091 -0.063884 0.977905 -0.207831 0.021668 0.439840 0.553878
1.423543 0.897206 -0.707035 0.990905 0.097201 0.092959 0.744126 0.814485
1.231954 1.216866 -0.594471 0.620960 0.783441 0.023713 0.672331 0.787452
0.975431 1.246559 0.047895 0.539476 0.835871 0.101138 0.683844 0.711964
1.050912 1.068503 0.197512 0.905545 0.413984 0.092441 0.731678 0.707183
-0.706694 0.190636 1.346937 -0.292245 -0.213691 0.932127 0.016271 0.536299
-1.043570 0.402928 1.289593 -0.432539 -0.307016 0.847713 0.006598 0.482318
-1.648060 0.452009 0.853586 -0.895047 -0.044740 0.443709 0.054401 0.402498
-1.571341 0.110279 0.770709 -0.735191 -0.555681 0.388165 0.090851 0.431859
0.494274 0.153436 1.399456 0.129032 -0.399243 0.907712 0.857058 0.070133
0.667029 0.439932 1.448684 0.098392 -0.116977 0.988220 0.855242 0.125920
0.260077 0.452640 1.365451 0.021577 -0.101199 0.994629 0.818683 0.137473
-0.135120 0.156677 1.505020 -0.091159 -0.209662 0.973479 0.786060 0.070157
0.524189 0.691410 1.410453 0.160741 -0.227332 0.960448 0.829103 0.182611
-0.065279 1.102928 1.796044 0.139134 0.378826 0.914914 0.720806 0.251159
-0.344848 1.152380 1.730000 -0.228645 0.542558 0.808283 0.693981 0.268226
-0.066870 0.652060 1.602193 -0.076510 -0.401013 0.912839 0.758736 0.168010
-1.346437 -0.078697 -0.808084 -0.463301 -0.730491 -0.501694 0.408067 0.318081
-1.759897 0.319614 -0.724614 -0.906888 -0.216926 -0.361217 0.348488 0.225548
-1.185727 0.481559 -1.133555 -0.516556 -0.255318 -0.817255 0.431026 0.176751
-1.550380 0.033513 0.487642 -0.780297 -0.610096 0.137455 0.834672 0.401576
-1.646483 0.462612 0.459024 -0.995697 0.067232 0.063295 0.821728 0.494375
-1.648881 0.429819 -0.064031 -0.996155 -0.038728 0.078402 0.758928 0.488146
-1.548443 -0.153801 -0.255587 -0.671896 -0.739891 -0.032685 0.747834 0.361119
-1.434319 1.017100 0.746778 -0.801080 0.560839 0.208991 0.853441 0.628842
-1.176430 1.281231 0.646380 -0.401135 0.899045 0.175481 0.844101 0.700647
-1.177093 1.303243 0.009798 -0.355815 0.934324 0.019776 0.766741 0.707183
-1.483055 1.068517 0.045330 -0.829615 0.550462 0.093142 0.766456 0.640000
-0.263198 0.916780 -1.716774 -0.274514 -0.053987 -0.960051 0.554998 0.057463
-0.775458 0.497559 -1.402503 -0.368542 -0.414838 -0.831874 0.491069 0.166304
0.802037 0.850318 -1.528586 0.423261 0.164098 -0.890988 0.661203 0.071636
0.556317 0.449266 -1.496503 0.238197 -0.471084 -0.849300 0.642437 0.169965
-0.199824 0.336820 -1.536424 -0.111850 -0.556169 -0.823481 0.565426 0.199969
0.153226 0.839249 -1.832230 0.166082 -0.000488 -0.986084 0.608937 0.072162
0.512712 0.114694 -1.198383 0.025208 -0.638508 -0.769189 0.628288 0.255903
0.468949 -0.142859 -1.026806 -0.096011 -0.863979 -0.494247 0.619708 0.321108
0.067265 -0.072713 -0.783522 -0.145390 -0.889340 -0.433424 0.560004 0.310321
-0.180515 0.060946 -1.233899 -0.113956 -0.828394 -0.548387 0.556413 0.271543
1.267461 0.630730 1.008356 0.947264 0.188269 0.259285 0.934356 0.187628
1.155268 0.478039 1.381585 0.667074 -0.009461 0.744896 0.907061 0.133559
1.050912 1.068503 0.197512 0.905545 0.413984 0.092441 0.622627 0.581780
1.115930 1.067893 0.980967 0.781915 0.543626 0.305032 0.617335 0.678426
0.975431 1.246559 0.047895 0.539476 0.835871 0.101138 0.662917 0.562066
0.808457 1.346412 0.902078 0.446211 0.853542 0.268929 0.672331 0.661064
-1.043570 0.402928 1.289593 -0.432539 -0.307016 0.847713 0.939564 0.506329
-1.648060 0.452009 0.853586 -0.895047 -0.044740 0.443709 0.869574 0.490922
0.260077 0.452640 1.365451 0.021577 -0.101199 0.994629 0.791582 0.866218
-0.066870 0.652060 1.602193 -0.076510 -0.401013 0.912839 0.744126 0.821215
-0.944509 0.743625 1.392342 -0.386761 -0.077364 0.918912 0.752056 0.707183
-1.043570 0.402928 1.289593 -0.432539 -0.307016 0.847713 0.791426 0.711743
-0.066870 0.652060 1.602193 -0.076510 -0.401013 0.912839 1.000000 0.606532
-0.344848 1.152380 1.730000 -0.228645 0.542558 0.808283 0.999879 0.706758
-1.719440 0.916506 -0.699776 -0.888943 0.365734 -0.275674 0.672331 0.596657
-1.759897 0.319614 -0.724614 -0.906888 -0.216926 -0.361217 0.677773 0.459778
-1.356023 1.245036 -0.716849 -0.451552 0.862300 -0.229072 0.674914 0.687648
-0.180515 0.060946 -1.233899 -0.113956 -0.828394 -0.548387 0.387737 0.801509
0.067265 -0.072713 -0.783522 -0.145390 -0.889340 -0.433424 0.336809 0.833560
-0.321458 -0.060305 -0.702046 -0.012482 -0.876095 -0.481948 0.336920 0.785916
-0.751048 0.149059 -1.123006 -0.161809 -0.704764 -0.690725 0.384519 0.726331
-0.359688 -0.219676 -0.596748 0.026948 -0.929777 -0.367046 0.506205 0.350977
-0.862364 -0.219203 -0.537108 -0.051271 -0.956633 -0.286721 0.448079 0.354288
0.172793 -0.188473 -0.532460 -0.140294 -0.946959 -0.289041 0.559475 0.342029
0.548058 -0.284113 -0.657622 -0.017396 -0.982086 -0.187567 0.609960 0.361119
0.896930 -0.116701 -1.078061 0.234199 -0.794275 -0.560564 0.324683 0.722893
1.042022 -0.190494 -0.637866 0.514176 -0.851466 -0.102939 0.278588 0.749240
0.468949 -0.142859 -1.026806 -0.096011 -0.863979 -0.494247 0.320949 0.673747
1.045407 -0.157597 -0.147996 0.568682 -0.821375 0.043275 0.218381 0.752553
1.008866 -0.126459 0.470257 0.516556 -0.848384 0.115604 0.143231 0.752483
0.736314 -0.076033 1.066762 0.316813 -0.856166 0.408124 0.069266 0.722735
0.342781 1.370886 0.863692 0.087588 0.979858 0.179388 0.808347 0.361119
0.975431 1.246559 0.047895 0.539476 0.835871 0.101138 0.056221 0.145884
0.808457 1.346412 0.902078 0.446211 0.853542 0.268929 0.000000 0.241327
1.231954 1.216866 -0.594471 0.620960 0.783441 0.023713 0.085645 0.065345
1.303753 1.083753 -1.023542 0.627979 0.694968 -0.350200 0.116277 0.014773
0.770454 1.122192 -1.299703 0.275735 0.807947 -0.520707 0.187902 0.035191
0.105258 1.126820 -1.585067 0.171178 0.818628 -0.548204 0.273048 0.064123
-0.174992 1.147173 -1.801163 -0.050722 0.652364 -0.756157 0.316518 0.068429
-0.681862 1.180458 -1.481573 -0.351421 0.711722 -0.608203 0.336809 0.140426
1.008866 -0.126459 0.470257 0.516556 -0.848384 0.115604 0.340137 0.610197
0.736314 -0.076033 1.066762 0.316813 -0.856166 0.408124 0.336809 0.674909
1.045407 -0.157597 -0.147996 0.568682 -0.821375 0.043275 0.339988 0.536299
1.042022 -0.190494 -0.637866 0.514176 -0.851466 -0.102939 0.336833 0.476818
0.896930 -0.116701 -1.078061 0.234199 -0.794275 -0.560564 0.353162 0.419686
1.081272 0.175115 -1.287556 0.504654 -0.445387 -0.739525 0.429528 0.400325
1.200361 0.538245 -1.221685 0.724326 -0.290017 -0.625446 0.517650 0.412671
1.423543 0.897206 -0.707035 0.990905 0.097201 0.092959 0.604166 0.482239
1.385825 0.807576 -1.181814 0.865413 0.009430 -0.500931 0.586459 0.423461
1.303753 1.083753 -1.023542 0.627979 0.694968 -0.350200 0.646477 0.441109
1.231954 1.216866 -0.594471 0.620960 0.783441 0.023713 0.670954 0.491413
-0.135120 0.156677 1.505020 -0.091159 -0.209662 0.973479 0.000000 0.608449
-1.043570 0.402928 1.289593 -0.432539 -0.307016 0.847713 0.694133 0.143704
-0.706694 0.190636 1.346937 -0.292245 -0.213691 0.932127 0.736508 0.092307
0.494274 0.153436 1.399456 0.129032 -0.399243 0.907712 0.012308 0.682984
1.014587 0.183491 1.312948 0.499191 -0.537370 0.679708 0.019832 0.742597
1.014587 0.183491 1.312948 0.499191 -0.537370 0.679708 0.913859 0.076969
-1.548443 -0.153801 -0.255587 -0.671896 -0.739891 -0.032685 0.232244 0.440506
-1.346437 -0.078697 -0.808084 -0.463301 -0.730491 -0.501694 0.291247 0.454530
-1.346437 -0.078697 -0.808084 -0.463301 -0.730491 -0.501694 0.685316 0.388716
-1.550380 0.033513 0.487642 -0.780297 -0.610096 0.137455 0.130148 0.436240
-1.571341 0.110279 0.770709 -0.735191 -0.555681 0.388165 0.867108 0.417288
-0.174992 1.147173 -1.801163 -0.050722 0.652364 -0.756157 0.563922 0.000091
0.105258 1.126820 -1.585067 0.171178 0.818628 -0.548204 0.582099 0.007382
0.802037 0.850318 -1.528586 0.423261 0.164098 -0.890988 0.207942 0.000000
0.153226 0.839249 -1.832230 0.166082 -0.000488 -0.986084 0.293309 0.025246
0.802037 0.850318 -1.528586 0.423261 0.164098 -0.890988 0.579472 0.365264
0.770454 1.122192 -1.299703 0.275735 0.807947 -0.520707 0.639569 0.392860
0.556317 0.449266 -1.496503 0.238197 -0.471084 -0.849300 0.477201 0.361119
1.200361 0.538245 -1.221685 0.724326 -0.290017 -0.625446 0.693981 0.150197
1.081272 0.175115 -1.287556 0.504654 -0.445387 -0.739525 0.693822 0.237100
0.896930 -0.116701 -1.078061 0.234199 -0.794275 -0.560564 0.668575 0.311882
4 0 1 2 3
4 4 5 6 7
4 8 9 10 11
4 12 13 14 15
4 16 17 18 19
4 20 21 22 23
4 24 25 26 27
4 28 29 30 31
4 32 33 34 35
4 36 37 38 39
4 40 41 42 43
4 44 45 46 47
4 48 49 50 51
4 52 53 54 55
4 56 57 58 59
4 60 61 62 63
4 64 65 66 67
4 68 69 70 71
4 72 73 74 23
4 75 76 77 78
4 79 80 81 82
4 83 84 74 19
4 85 86 87 88
4 89 90 91 92
4 25 0 3 26
4 0 25 30 35
4 1 0 35 34
4 37 4 7 38
4 42 47 4 37
4 47 46 5 4
4 93 8 11 94
4 54 95 96 49
4 95 97 98 96
4 99 12 15 100
4 101 102 103 104
4 105 106 13 12
4 73 16 19 74
4 77 82 107 108
4 82 81 109 107
4 84 20 23 74
4 87 92 20 84
4 110 111 112 113
4 21 114 115 22
4 91 116 114 21
4 31 30 25 24
4 90 117 116 91
4 118 119 28 120
4 119 121 29 28
4 29 32 35 30
4 121 122 32 29
4 122 123 33 32
4 9 124 69 10
4 125 43 36 126
4 43 42 37 36
4 127 40 43 125
4 128 129 40 127
4 129 130 41 40
4 41 44 47 42
4 130 131 44 41
4 131 132 45 44
4 133 48 51 134
4 135 55 48 133
4 55 54 49 48
4 136 52 55 135
4 137 138 52 136
4 138 139 53 52
4 53 140 95 54
4 139 141 140 53
4 141 142 143 140
4 1 60 63 2
4 34 144 60 1
4 67 66 145 146
4 33 147 144 34
4 123 148 147 33
4 149 94 65 64
4 65 68 71 66
4 94 11 68 65
4 11 10 69 68
4 115 72 23 22
4 26 150 151 27
4 78 77 108 152
4 3 153 150 26
4 2 63 153 3
4 154 100 76 75
4 76 79 82 77
4 100 15 79 76
4 15 14 80 79
4 155 83 19 18
4 156 88 83 155
4 88 87 84 83
4 129 157 158 130
4 142 141 159 160
4 141 139 161 159
4 86 89 92 87
4 162 163 89 86
4 163 164 90 89
